<?xml version="1.0" encoding="UTF-8" standalone="no"?>
<!DOCTYPE svg PUBLIC "-//W3C//DTD SVG 1.1//EN"
 "http://www.w3.org/Graphics/SVG/1.1/DTD/svg11.dtd">
<!-- Generated by graphviz version 2.38.0 (20140413.2041)
 -->
<!-- Title: Program Pages: 1 -->
<svg width="572pt" height="1932pt"
 viewBox="0.00 0.00 571.57 1932.00" xmlns="http://www.w3.org/2000/svg" xmlns:xlink="http://www.w3.org/1999/xlink">
<g id="graph0" class="graph" transform="scale(1 1) rotate(0) translate(4 1928)">
<title>Program</title>
<polygon fill="white" stroke="none" points="-4,4 -4,-1928 567.57,-1928 567.57,4 -4,4"/>
<!-- B1 {\n &#160;4: ENTER{Program}\n &#160;6: CREATE_FUNCTION{}\n &#160;7: STORE_VALUE{fibonacci}\n &#160;8: POP{}\n &#160;9: ENTER{ForStatement}\n &#160;11: LOAD_NAME{i}\n &#160;12: LOAD_LITERAL{}\n &#160;13: STORE_VALUE{i}\n} -->
<g id="node1" class="node"><title>B1 {\n &#160;4: ENTER{Program}\n &#160;6: CREATE_FUNCTION{}\n &#160;7: STORE_VALUE{fibonacci}\n &#160;8: POP{}\n &#160;9: ENTER{ForStatement}\n &#160;11: LOAD_NAME{i}\n &#160;12: LOAD_LITERAL{}\n &#160;13: STORE_VALUE{i}\n}</title>
<polygon fill="none" stroke="black" points="542.938,-1924 360.202,-1924 360.202,-1784 542.938,-1784 542.938,-1924"/>
<text text-anchor="middle" x="451.57" y="-1912.8" font-family="Times,serif" font-size="14.00">B1 {</text>
<text text-anchor="middle" x="451.57" y="-1898.8" font-family="Times,serif" font-size="14.00"> &#160;4: ENTER{Program}</text>
<text text-anchor="middle" x="451.57" y="-1884.8" font-family="Times,serif" font-size="14.00"> &#160;6: CREATE_FUNCTION{}</text>
<text text-anchor="middle" x="451.57" y="-1870.8" font-family="Times,serif" font-size="14.00"> &#160;7: STORE_VALUE{fibonacci}</text>
<text text-anchor="middle" x="451.57" y="-1856.8" font-family="Times,serif" font-size="14.00"> &#160;8: POP{}</text>
<text text-anchor="middle" x="451.57" y="-1842.8" font-family="Times,serif" font-size="14.00"> &#160;9: ENTER{ForStatement}</text>
<text text-anchor="middle" x="451.57" y="-1828.8" font-family="Times,serif" font-size="14.00"> &#160;11: LOAD_NAME{i}</text>
<text text-anchor="middle" x="451.57" y="-1814.8" font-family="Times,serif" font-size="14.00"> &#160;12: LOAD_LITERAL{}</text>
<text text-anchor="middle" x="451.57" y="-1800.8" font-family="Times,serif" font-size="14.00"> &#160;13: STORE_VALUE{i}</text>
<text text-anchor="middle" x="451.57" y="-1786.8" font-family="Times,serif" font-size="14.00">}</text>
</g>
<!-- B2 {\n &#160;14: LOAD_VALUE{i}\n} -->
<g id="node2" class="node"><title>B2 {\n &#160;14: LOAD_VALUE{i}\n}</title>
<polygon fill="none" stroke="black" points="520.301,-1748 382.838,-1748 382.838,-1706 520.301,-1706 520.301,-1748"/>
<text text-anchor="middle" x="451.57" y="-1736.8" font-family="Times,serif" font-size="14.00">B2 {</text>
<text text-anchor="middle" x="451.57" y="-1722.8" font-family="Times,serif" font-size="14.00"> &#160;14: LOAD_VALUE{i}</text>
<text text-anchor="middle" x="451.57" y="-1708.8" font-family="Times,serif" font-size="14.00">}</text>
</g>
<!-- B1 {\n &#160;4: ENTER{Program}\n &#160;6: CREATE_FUNCTION{}\n &#160;7: STORE_VALUE{fibonacci}\n &#160;8: POP{}\n &#160;9: ENTER{ForStatement}\n &#160;11: LOAD_NAME{i}\n &#160;12: LOAD_LITERAL{}\n &#160;13: STORE_VALUE{i}\n}&#45;&gt;B2 {\n &#160;14: LOAD_VALUE{i}\n} -->
<g id="edge1" class="edge"><title>B1 {\n &#160;4: ENTER{Program}\n &#160;6: CREATE_FUNCTION{}\n &#160;7: STORE_VALUE{fibonacci}\n &#160;8: POP{}\n &#160;9: ENTER{ForStatement}\n &#160;11: LOAD_NAME{i}\n &#160;12: LOAD_LITERAL{}\n &#160;13: STORE_VALUE{i}\n}&#45;&gt;B2 {\n &#160;14: LOAD_VALUE{i}\n}</title>
<path fill="none" stroke="gray" d="M451.57,-1783.92C451.57,-1774.91 451.57,-1766.09 451.57,-1758.21"/>
<polygon fill="gray" stroke="gray" points="455.07,-1758.13 451.57,-1748.13 448.07,-1758.13 455.07,-1758.13"/>
</g>
<!-- B3 {\n &#160;15: LOAD_LITERAL{10}\n &#160;16: LT{}\n} -->
<g id="node3" class="node"><title>B3 {\n &#160;15: LOAD_LITERAL{10}\n &#160;16: LT{}\n}</title>
<polygon fill="none" stroke="black" points="419.599,-1670 259.541,-1670 259.541,-1614 419.599,-1614 419.599,-1670"/>
<text text-anchor="middle" x="339.57" y="-1658.8" font-family="Times,serif" font-size="14.00">B3 {</text>
<text text-anchor="middle" x="339.57" y="-1644.8" font-family="Times,serif" font-size="14.00"> &#160;15: LOAD_LITERAL{10}</text>
<text text-anchor="middle" x="339.57" y="-1630.8" font-family="Times,serif" font-size="14.00"> &#160;16: LT{}</text>
<text text-anchor="middle" x="339.57" y="-1616.8" font-family="Times,serif" font-size="14.00">}</text>
</g>
<!-- B2 {\n &#160;14: LOAD_VALUE{i}\n}&#45;&gt;B3 {\n &#160;15: LOAD_LITERAL{10}\n &#160;16: LT{}\n} -->
<g id="edge2" class="edge"><title>B2 {\n &#160;14: LOAD_VALUE{i}\n}&#45;&gt;B3 {\n &#160;15: LOAD_LITERAL{10}\n &#160;16: LT{}\n}</title>
<path fill="none" stroke="gray" d="M424.458,-1705.91C412.449,-1697.01 397.999,-1686.3 384.453,-1676.26"/>
<polygon fill="gray" stroke="gray" points="386.284,-1673.26 376.165,-1670.12 382.116,-1678.89 386.284,-1673.26"/>
</g>
<!-- B4 {\n &#160;17: TEST{}\n} -->
<g id="node4" class="node"><title>B4 {\n &#160;17: TEST{}\n}</title>
<polygon fill="none" stroke="black" points="293.094,-1578 218.045,-1578 218.045,-1536 293.094,-1536 293.094,-1578"/>
<text text-anchor="middle" x="255.57" y="-1566.8" font-family="Times,serif" font-size="14.00">B4 {</text>
<text text-anchor="middle" x="255.57" y="-1552.8" font-family="Times,serif" font-size="14.00"> &#160;17: TEST{}</text>
<text text-anchor="middle" x="255.57" y="-1538.8" font-family="Times,serif" font-size="14.00">}</text>
</g>
<!-- B3 {\n &#160;15: LOAD_LITERAL{10}\n &#160;16: LT{}\n}&#45;&gt;B4 {\n &#160;17: TEST{}\n} -->
<g id="edge3" class="edge"><title>B3 {\n &#160;15: LOAD_LITERAL{10}\n &#160;16: LT{}\n}&#45;&gt;B4 {\n &#160;17: TEST{}\n}</title>
<path fill="none" stroke="gray" d="M312.065,-1613.82C302.777,-1604.65 292.412,-1594.4 283.121,-1585.22"/>
<polygon fill="gray" stroke="gray" points="285.514,-1582.67 275.941,-1578.13 280.594,-1587.65 285.514,-1582.67"/>
</g>
<!-- B23 {\n &#160;10: EXIT{ForStatement}\n} -->
<g id="node5" class="node"><title>B23 {\n &#160;10: EXIT{ForStatement}\n}</title>
<polygon fill="none" stroke="black" points="149.21,-1500 -0.0698897,-1500 -0.0698897,-1458 149.21,-1458 149.21,-1500"/>
<text text-anchor="middle" x="74.5698" y="-1488.8" font-family="Times,serif" font-size="14.00">B23 {</text>
<text text-anchor="middle" x="74.5698" y="-1474.8" font-family="Times,serif" font-size="14.00"> &#160;10: EXIT{ForStatement}</text>
<text text-anchor="middle" x="74.5698" y="-1460.8" font-family="Times,serif" font-size="14.00">}</text>
</g>
<!-- B4 {\n &#160;17: TEST{}\n}&#45;&gt;B23 {\n &#160;10: EXIT{ForStatement}\n} -->
<g id="edge4" class="edge"><title>B4 {\n &#160;17: TEST{}\n}&#45;&gt;B23 {\n &#160;10: EXIT{ForStatement}\n}</title>
<path fill="none" stroke="red" d="M217.626,-1540.07C192.76,-1529.63 159.791,-1515.78 131.772,-1504.02"/>
<polygon fill="red" stroke="red" points="133.053,-1500.76 122.478,-1500.12 130.343,-1507.21 133.053,-1500.76"/>
</g>
<!-- B5 {\n &#160;18: ENTER{BlockStatement}\n} -->
<g id="node6" class="node"><title>B5 {\n &#160;18: ENTER{BlockStatement}\n}</title>
<polygon fill="none" stroke="black" points="343.931,-1500 167.209,-1500 167.209,-1458 343.931,-1458 343.931,-1500"/>
<text text-anchor="middle" x="255.57" y="-1488.8" font-family="Times,serif" font-size="14.00">B5 {</text>
<text text-anchor="middle" x="255.57" y="-1474.8" font-family="Times,serif" font-size="14.00"> &#160;18: ENTER{BlockStatement}</text>
<text text-anchor="middle" x="255.57" y="-1460.8" font-family="Times,serif" font-size="14.00">}</text>
</g>
<!-- B4 {\n &#160;17: TEST{}\n}&#45;&gt;B5 {\n &#160;18: ENTER{BlockStatement}\n} -->
<g id="edge5" class="edge"><title>B4 {\n &#160;17: TEST{}\n}&#45;&gt;B5 {\n &#160;18: ENTER{BlockStatement}\n}</title>
<path fill="none" stroke="green" d="M255.57,-1535.63C255.57,-1527.82 255.57,-1518.73 255.57,-1510.18"/>
<polygon fill="green" stroke="green" points="259.07,-1510.16 255.57,-1500.16 252.07,-1510.16 259.07,-1510.16"/>
</g>
<!-- 5: EXIT{Program} -->
<g id="node25" class="node"><title>5: EXIT{Program}</title>
<polygon fill="none" stroke="black" points="128.489,-1419 20.6508,-1419 20.6508,-1383 128.489,-1383 128.489,-1419"/>
<text text-anchor="middle" x="74.5698" y="-1396.8" font-family="Times,serif" font-size="14.00">5: EXIT{Program}</text>
</g>
<!-- B23 {\n &#160;10: EXIT{ForStatement}\n}&#45;&gt;5: EXIT{Program} -->
<g id="edge30" class="edge"><title>B23 {\n &#160;10: EXIT{ForStatement}\n}&#45;&gt;5: EXIT{Program}</title>
<path fill="none" stroke="gray" d="M74.5698,-1457.63C74.5698,-1448.94 74.5698,-1438.67 74.5698,-1429.34"/>
<polygon fill="gray" stroke="gray" points="78.0699,-1429.33 74.5698,-1419.33 71.0699,-1429.33 78.0699,-1429.33"/>
</g>
<!-- B6 {\n &#160;20: LOAD_VALUE{console}\n} -->
<g id="node7" class="node"><title>B6 {\n &#160;20: LOAD_VALUE{console}\n}</title>
<polygon fill="none" stroke="black" points="332.677,-1422 156.462,-1422 156.462,-1380 332.677,-1380 332.677,-1422"/>
<text text-anchor="middle" x="244.57" y="-1410.8" font-family="Times,serif" font-size="14.00">B6 {</text>
<text text-anchor="middle" x="244.57" y="-1396.8" font-family="Times,serif" font-size="14.00"> &#160;20: LOAD_VALUE{console}</text>
<text text-anchor="middle" x="244.57" y="-1382.8" font-family="Times,serif" font-size="14.00">}</text>
</g>
<!-- B5 {\n &#160;18: ENTER{BlockStatement}\n}&#45;&gt;B6 {\n &#160;20: LOAD_VALUE{console}\n} -->
<g id="edge6" class="edge"><title>B5 {\n &#160;18: ENTER{BlockStatement}\n}&#45;&gt;B6 {\n &#160;20: LOAD_VALUE{console}\n}</title>
<path fill="none" stroke="gray" d="M252.622,-1457.63C251.491,-1449.82 250.175,-1440.73 248.938,-1432.18"/>
<polygon fill="gray" stroke="gray" points="252.384,-1431.55 247.488,-1422.16 245.456,-1432.56 252.384,-1431.55"/>
</g>
<!-- 1: EXC{Program} -->
<g id="node8" class="node"><title>1: EXC{Program}</title>
<polygon fill="none" stroke="black" points="127.613,-138 23.5268,-138 23.5268,-102 127.613,-102 127.613,-138"/>
<text text-anchor="middle" x="75.5698" y="-115.8" font-family="Times,serif" font-size="14.00">1: EXC{Program}</text>
</g>
<!-- B6 {\n &#160;20: LOAD_VALUE{console}\n}&#45;&gt;1: EXC{Program} -->
<g id="edge7" class="edge"><title>B6 {\n &#160;20: LOAD_VALUE{console}\n}&#45;&gt;1: EXC{Program}</title>
<path fill="none" stroke="purple" d="M183.583,-1379.91C122.523,-1355.5 37.5698,-1307.91 37.5698,-1232 37.5698,-1232 37.5698,-1232 37.5698,-296 37.5698,-242.467 54.7611,-181.777 66.0176,-147.776"/>
<polygon fill="purple" stroke="purple" points="69.3957,-148.713 69.2949,-138.119 62.767,-146.464 69.3957,-148.713"/>
</g>
<!-- B7 {\n &#160;21: LOAD_PROP_NAME{log}\n} -->
<g id="node9" class="node"><title>B7 {\n &#160;21: LOAD_PROP_NAME{log}\n}</title>
<polygon fill="none" stroke="black" points="338.913,-1344 150.227,-1344 150.227,-1302 338.913,-1302 338.913,-1344"/>
<text text-anchor="middle" x="244.57" y="-1332.8" font-family="Times,serif" font-size="14.00">B7 {</text>
<text text-anchor="middle" x="244.57" y="-1318.8" font-family="Times,serif" font-size="14.00"> &#160;21: LOAD_PROP_NAME{log}</text>
<text text-anchor="middle" x="244.57" y="-1304.8" font-family="Times,serif" font-size="14.00">}</text>
</g>
<!-- B6 {\n &#160;20: LOAD_VALUE{console}\n}&#45;&gt;B7 {\n &#160;21: LOAD_PROP_NAME{log}\n} -->
<g id="edge8" class="edge"><title>B6 {\n &#160;20: LOAD_VALUE{console}\n}&#45;&gt;B7 {\n &#160;21: LOAD_PROP_NAME{log}\n}</title>
<path fill="none" stroke="gray" d="M244.57,-1379.63C244.57,-1371.82 244.57,-1362.73 244.57,-1354.18"/>
<polygon fill="gray" stroke="gray" points="248.07,-1354.16 244.57,-1344.16 241.07,-1354.16 248.07,-1354.16"/>
</g>
<!-- B7 {\n &#160;21: LOAD_PROP_NAME{log}\n}&#45;&gt;1: EXC{Program} -->
<g id="edge9" class="edge"><title>B7 {\n &#160;21: LOAD_PROP_NAME{log}\n}&#45;&gt;1: EXC{Program}</title>
<path fill="none" stroke="purple" d="M204.947,-1301.78C154.996,-1273.13 75.5698,-1215.67 75.5698,-1140 75.5698,-1140 75.5698,-1140 75.5698,-296 75.5698,-243.912 75.5698,-183.102 75.5698,-148.615"/>
<polygon fill="purple" stroke="purple" points="79.0699,-148.387 75.5698,-138.387 72.0699,-148.387 79.0699,-148.387"/>
</g>
<!-- B8 {\n &#160;22: LOAD_VALUE{fibonacci}\n &#160;23: LOAD_VALUE{i}\n &#160;24: CALL{1}\n} -->
<g id="node10" class="node"><title>B8 {\n &#160;22: LOAD_VALUE{fibonacci}\n &#160;23: LOAD_VALUE{i}\n &#160;24: CALL{1}\n}</title>
<polygon fill="none" stroke="black" points="441.729,-1266 257.41,-1266 257.41,-1196 441.729,-1196 441.729,-1266"/>
<text text-anchor="middle" x="349.57" y="-1254.8" font-family="Times,serif" font-size="14.00">B8 {</text>
<text text-anchor="middle" x="349.57" y="-1240.8" font-family="Times,serif" font-size="14.00"> &#160;22: LOAD_VALUE{fibonacci}</text>
<text text-anchor="middle" x="349.57" y="-1226.8" font-family="Times,serif" font-size="14.00"> &#160;23: LOAD_VALUE{i}</text>
<text text-anchor="middle" x="349.57" y="-1212.8" font-family="Times,serif" font-size="14.00"> &#160;24: CALL{1}</text>
<text text-anchor="middle" x="349.57" y="-1198.8" font-family="Times,serif" font-size="14.00">}</text>
</g>
<!-- B7 {\n &#160;21: LOAD_PROP_NAME{log}\n}&#45;&gt;B8 {\n &#160;22: LOAD_VALUE{fibonacci}\n &#160;23: LOAD_VALUE{i}\n &#160;24: CALL{1}\n} -->
<g id="edge10" class="edge"><title>B7 {\n &#160;21: LOAD_PROP_NAME{log}\n}&#45;&gt;B8 {\n &#160;22: LOAD_VALUE{fibonacci}\n &#160;23: LOAD_VALUE{i}\n &#160;24: CALL{1}\n}</title>
<path fill="none" stroke="gray" d="M268.134,-1301.8C278.153,-1293.21 290.217,-1282.87 301.952,-1272.82"/>
<polygon fill="gray" stroke="gray" points="304.277,-1275.43 309.592,-1266.27 299.721,-1270.12 304.277,-1275.43"/>
</g>
<!-- B9 {\n &#160;26: ENTER{FunctionDeclaration}\n} -->
<g id="node11" class="node"><title>B9 {\n &#160;26: ENTER{FunctionDeclaration}\n}</title>
<polygon fill="none" stroke="black" points="502.579,-1160 300.561,-1160 300.561,-1118 502.579,-1118 502.579,-1160"/>
<text text-anchor="middle" x="401.57" y="-1148.8" font-family="Times,serif" font-size="14.00">B9 {</text>
<text text-anchor="middle" x="401.57" y="-1134.8" font-family="Times,serif" font-size="14.00"> &#160;26: ENTER{FunctionDeclaration}</text>
<text text-anchor="middle" x="401.57" y="-1120.8" font-family="Times,serif" font-size="14.00">}</text>
</g>
<!-- B8 {\n &#160;22: LOAD_VALUE{fibonacci}\n &#160;23: LOAD_VALUE{i}\n &#160;24: CALL{1}\n}&#45;&gt;B9 {\n &#160;26: ENTER{FunctionDeclaration}\n} -->
<g id="edge11" class="edge"><title>B8 {\n &#160;22: LOAD_VALUE{fibonacci}\n &#160;23: LOAD_VALUE{i}\n &#160;24: CALL{1}\n}&#45;&gt;B9 {\n &#160;26: ENTER{FunctionDeclaration}\n}</title>
<path fill="none" stroke="gray" d="M369.229,-1195.97C374.34,-1187.13 379.8,-1177.68 384.75,-1169.11"/>
<polygon fill="gray" stroke="gray" points="387.908,-1170.64 389.881,-1160.23 381.847,-1167.14 387.908,-1170.64"/>
</g>
<!-- B10 {\n &#160;29: ENTER{BlockStatement}\n &#160;31: ENTER{IfStatement}\n &#160;33: LOAD_VALUE{n}\n &#160;34: LOAD_LITERAL{1}\n &#160;35: LEQ{}\n} -->
<g id="node12" class="node"><title>B10 {\n &#160;29: ENTER{BlockStatement}\n &#160;31: ENTER{IfStatement}\n &#160;33: LOAD_VALUE{n}\n &#160;34: LOAD_LITERAL{1}\n &#160;35: LEQ{}\n}</title>
<polygon fill="none" stroke="black" points="457.931,-1082 281.209,-1082 281.209,-984 457.931,-984 457.931,-1082"/>
<text text-anchor="middle" x="369.57" y="-1070.8" font-family="Times,serif" font-size="14.00">B10 {</text>
<text text-anchor="middle" x="369.57" y="-1056.8" font-family="Times,serif" font-size="14.00"> &#160;29: ENTER{BlockStatement}</text>
<text text-anchor="middle" x="369.57" y="-1042.8" font-family="Times,serif" font-size="14.00"> &#160;31: ENTER{IfStatement}</text>
<text text-anchor="middle" x="369.57" y="-1028.8" font-family="Times,serif" font-size="14.00"> &#160;33: LOAD_VALUE{n}</text>
<text text-anchor="middle" x="369.57" y="-1014.8" font-family="Times,serif" font-size="14.00"> &#160;34: LOAD_LITERAL{1}</text>
<text text-anchor="middle" x="369.57" y="-1000.8" font-family="Times,serif" font-size="14.00"> &#160;35: LEQ{}</text>
<text text-anchor="middle" x="369.57" y="-986.8" font-family="Times,serif" font-size="14.00">}</text>
</g>
<!-- B9 {\n &#160;26: ENTER{FunctionDeclaration}\n}&#45;&gt;B10 {\n &#160;29: ENTER{BlockStatement}\n &#160;31: ENTER{IfStatement}\n &#160;33: LOAD_VALUE{n}\n &#160;34: LOAD_LITERAL{1}\n &#160;35: LEQ{}\n} -->
<g id="edge12" class="edge"><title>B9 {\n &#160;26: ENTER{FunctionDeclaration}\n}&#45;&gt;B10 {\n &#160;29: ENTER{BlockStatement}\n &#160;31: ENTER{IfStatement}\n &#160;33: LOAD_VALUE{n}\n &#160;34: LOAD_LITERAL{1}\n &#160;35: LEQ{}\n}</title>
<path fill="none" stroke="gray" d="M395.4,-1117.95C393.054,-1110.33 390.249,-1101.21 387.365,-1091.83"/>
<polygon fill="gray" stroke="gray" points="390.632,-1090.55 384.346,-1082.02 383.942,-1092.61 390.632,-1090.55"/>
</g>
<!-- B11 {\n &#160;36: TEST{}\n} -->
<g id="node13" class="node"><title>B11 {\n &#160;36: TEST{}\n}</title>
<polygon fill="none" stroke="black" points="405.094,-948 330.045,-948 330.045,-906 405.094,-906 405.094,-948"/>
<text text-anchor="middle" x="367.57" y="-936.8" font-family="Times,serif" font-size="14.00">B11 {</text>
<text text-anchor="middle" x="367.57" y="-922.8" font-family="Times,serif" font-size="14.00"> &#160;36: TEST{}</text>
<text text-anchor="middle" x="367.57" y="-908.8" font-family="Times,serif" font-size="14.00">}</text>
</g>
<!-- B10 {\n &#160;29: ENTER{BlockStatement}\n &#160;31: ENTER{IfStatement}\n &#160;33: LOAD_VALUE{n}\n &#160;34: LOAD_LITERAL{1}\n &#160;35: LEQ{}\n}&#45;&gt;B11 {\n &#160;36: TEST{}\n} -->
<g id="edge13" class="edge"><title>B10 {\n &#160;29: ENTER{BlockStatement}\n &#160;31: ENTER{IfStatement}\n &#160;33: LOAD_VALUE{n}\n &#160;34: LOAD_LITERAL{1}\n &#160;35: LEQ{}\n}&#45;&gt;B11 {\n &#160;36: TEST{}\n}</title>
<path fill="none" stroke="gray" d="M368.646,-983.958C368.477,-975.15 368.304,-966.19 368.149,-958.097"/>
<polygon fill="gray" stroke="gray" points="371.647,-957.972 367.955,-948.042 364.648,-958.107 371.647,-957.972"/>
</g>
<!-- B12 {\n &#160;37: LOAD_LITERAL{1}\n} -->
<g id="node14" class="node"><title>B12 {\n &#160;37: LOAD_LITERAL{1}\n}</title>
<polygon fill="none" stroke="black" points="257.099,-771 104.041,-771 104.041,-729 257.099,-729 257.099,-771"/>
<text text-anchor="middle" x="180.57" y="-759.8" font-family="Times,serif" font-size="14.00">B12 {</text>
<text text-anchor="middle" x="180.57" y="-745.8" font-family="Times,serif" font-size="14.00"> &#160;37: LOAD_LITERAL{1}</text>
<text text-anchor="middle" x="180.57" y="-731.8" font-family="Times,serif" font-size="14.00">}</text>
</g>
<!-- B11 {\n &#160;36: TEST{}\n}&#45;&gt;B12 {\n &#160;37: LOAD_LITERAL{1}\n} -->
<g id="edge14" class="edge"><title>B11 {\n &#160;36: TEST{}\n}&#45;&gt;B12 {\n &#160;37: LOAD_LITERAL{1}\n}</title>
<path fill="none" stroke="green" d="M336.009,-905.939C321.056,-895.865 303.289,-883.047 288.57,-870 256.494,-841.569 224.02,-804.404 203.179,-779.228"/>
<polygon fill="green" stroke="green" points="205.624,-776.689 196.575,-771.179 200.213,-781.13 205.624,-776.689"/>
</g>
<!-- B13 {\n &#160;32: EXIT{IfStatement}\n} -->
<g id="node16" class="node"><title>B13 {\n &#160;32: EXIT{IfStatement}\n}</title>
<polygon fill="none" stroke="black" points="437.085,-870 298.054,-870 298.054,-828 437.085,-828 437.085,-870"/>
<text text-anchor="middle" x="367.57" y="-858.8" font-family="Times,serif" font-size="14.00">B13 {</text>
<text text-anchor="middle" x="367.57" y="-844.8" font-family="Times,serif" font-size="14.00"> &#160;32: EXIT{IfStatement}</text>
<text text-anchor="middle" x="367.57" y="-830.8" font-family="Times,serif" font-size="14.00">}</text>
</g>
<!-- B11 {\n &#160;36: TEST{}\n}&#45;&gt;B13 {\n &#160;32: EXIT{IfStatement}\n} -->
<g id="edge16" class="edge"><title>B11 {\n &#160;36: TEST{}\n}&#45;&gt;B13 {\n &#160;32: EXIT{IfStatement}\n}</title>
<path fill="none" stroke="red" d="M367.57,-905.633C367.57,-897.819 367.57,-888.725 367.57,-880.183"/>
<polygon fill="red" stroke="red" points="371.07,-880.159 367.57,-870.159 364.07,-880.159 371.07,-880.159"/>
</g>
<!-- B19 {\n &#160;27: EXIT{FunctionDeclaration}\n} -->
<g id="node15" class="node"><title>B19 {\n &#160;27: EXIT{FunctionDeclaration}\n}</title>
<polygon fill="none" stroke="black" points="351.851,-318 163.288,-318 163.288,-276 351.851,-276 351.851,-318"/>
<text text-anchor="middle" x="257.57" y="-306.8" font-family="Times,serif" font-size="14.00">B19 {</text>
<text text-anchor="middle" x="257.57" y="-292.8" font-family="Times,serif" font-size="14.00"> &#160;27: EXIT{FunctionDeclaration}</text>
<text text-anchor="middle" x="257.57" y="-278.8" font-family="Times,serif" font-size="14.00">}</text>
</g>
<!-- B12 {\n &#160;37: LOAD_LITERAL{1}\n}&#45;&gt;B19 {\n &#160;27: EXIT{FunctionDeclaration}\n} -->
<g id="edge15" class="edge"><title>B12 {\n &#160;37: LOAD_LITERAL{1}\n}&#45;&gt;B19 {\n &#160;27: EXIT{FunctionDeclaration}\n}</title>
<path fill="none" stroke="gray" d="M186.415,-728.884C196.136,-693.597 214.57,-618.1 214.57,-553 214.57,-553 214.57,-553 214.57,-452 214.57,-407.415 231.497,-358.155 244.11,-327.637"/>
<polygon fill="gray" stroke="gray" points="247.338,-328.989 248.027,-318.417 240.895,-326.252 247.338,-328.989"/>
</g>
<!-- B20 {\n &#160;51: CALL{1}\n} -->
<g id="node22" class="node"><title>B20 {\n &#160;51: CALL{1}\n}</title>
<polygon fill="none" stroke="black" points="300.452,-240 214.688,-240 214.688,-198 300.452,-198 300.452,-240"/>
<text text-anchor="middle" x="257.57" y="-228.8" font-family="Times,serif" font-size="14.00">B20 {</text>
<text text-anchor="middle" x="257.57" y="-214.8" font-family="Times,serif" font-size="14.00"> &#160;51: CALL{1}</text>
<text text-anchor="middle" x="257.57" y="-200.8" font-family="Times,serif" font-size="14.00">}</text>
</g>
<!-- B19 {\n &#160;27: EXIT{FunctionDeclaration}\n}&#45;&gt;B20 {\n &#160;51: CALL{1}\n} -->
<g id="edge25" class="edge"><title>B19 {\n &#160;27: EXIT{FunctionDeclaration}\n}&#45;&gt;B20 {\n &#160;51: CALL{1}\n}</title>
<path fill="none" stroke="gray" d="M257.57,-275.633C257.57,-267.819 257.57,-258.725 257.57,-250.183"/>
<polygon fill="gray" stroke="gray" points="261.07,-250.159 257.57,-240.159 254.07,-250.159 261.07,-250.159"/>
</g>
<!-- B14 {\n &#160;39: LOAD_VALUE{fibonacci}\n &#160;40: LOAD_VALUE{n}\n &#160;41: LOAD_LITERAL{1}\n &#160;42: SUB{}\n} -->
<g id="node17" class="node"><title>B14 {\n &#160;39: LOAD_VALUE{fibonacci}\n &#160;40: LOAD_VALUE{n}\n &#160;41: LOAD_LITERAL{1}\n &#160;42: SUB{}\n}</title>
<polygon fill="none" stroke="black" points="459.729,-792 275.41,-792 275.41,-708 459.729,-708 459.729,-792"/>
<text text-anchor="middle" x="367.57" y="-780.8" font-family="Times,serif" font-size="14.00">B14 {</text>
<text text-anchor="middle" x="367.57" y="-766.8" font-family="Times,serif" font-size="14.00"> &#160;39: LOAD_VALUE{fibonacci}</text>
<text text-anchor="middle" x="367.57" y="-752.8" font-family="Times,serif" font-size="14.00"> &#160;40: LOAD_VALUE{n}</text>
<text text-anchor="middle" x="367.57" y="-738.8" font-family="Times,serif" font-size="14.00"> &#160;41: LOAD_LITERAL{1}</text>
<text text-anchor="middle" x="367.57" y="-724.8" font-family="Times,serif" font-size="14.00"> &#160;42: SUB{}</text>
<text text-anchor="middle" x="367.57" y="-710.8" font-family="Times,serif" font-size="14.00">}</text>
</g>
<!-- B13 {\n &#160;32: EXIT{IfStatement}\n}&#45;&gt;B14 {\n &#160;39: LOAD_VALUE{fibonacci}\n &#160;40: LOAD_VALUE{n}\n &#160;41: LOAD_LITERAL{1}\n &#160;42: SUB{}\n} -->
<g id="edge17" class="edge"><title>B13 {\n &#160;32: EXIT{IfStatement}\n}&#45;&gt;B14 {\n &#160;39: LOAD_VALUE{fibonacci}\n &#160;40: LOAD_VALUE{n}\n &#160;41: LOAD_LITERAL{1}\n &#160;42: SUB{}\n}</title>
<path fill="none" stroke="gray" d="M367.57,-827.902C367.57,-820.402 367.57,-811.504 367.57,-802.468"/>
<polygon fill="gray" stroke="gray" points="371.07,-802.275 367.57,-792.275 364.07,-802.275 371.07,-802.275"/>
</g>
<!-- B15 {\n &#160;43: CALL{1}\n} -->
<g id="node18" class="node"><title>B15 {\n &#160;43: CALL{1}\n}</title>
<polygon fill="none" stroke="black" points="429.452,-672 343.688,-672 343.688,-630 429.452,-630 429.452,-672"/>
<text text-anchor="middle" x="386.57" y="-660.8" font-family="Times,serif" font-size="14.00">B15 {</text>
<text text-anchor="middle" x="386.57" y="-646.8" font-family="Times,serif" font-size="14.00"> &#160;43: CALL{1}</text>
<text text-anchor="middle" x="386.57" y="-632.8" font-family="Times,serif" font-size="14.00">}</text>
</g>
<!-- B14 {\n &#160;39: LOAD_VALUE{fibonacci}\n &#160;40: LOAD_VALUE{n}\n &#160;41: LOAD_LITERAL{1}\n &#160;42: SUB{}\n}&#45;&gt;B15 {\n &#160;43: CALL{1}\n} -->
<g id="edge18" class="edge"><title>B14 {\n &#160;39: LOAD_VALUE{fibonacci}\n &#160;40: LOAD_VALUE{n}\n &#160;41: LOAD_LITERAL{1}\n &#160;42: SUB{}\n}&#45;&gt;B15 {\n &#160;43: CALL{1}\n}</title>
<path fill="none" stroke="gray" d="M375.628,-707.863C377.334,-699.15 379.105,-690.112 380.711,-681.909"/>
<polygon fill="gray" stroke="gray" points="384.154,-682.541 382.642,-672.054 377.285,-681.195 384.154,-682.541"/>
</g>
<!-- B15 {\n &#160;43: CALL{1}\n}&#45;&gt;B9 {\n &#160;26: ENTER{FunctionDeclaration}\n} -->
<g id="edge19" class="edge"><title>B15 {\n &#160;43: CALL{1}\n}&#45;&gt;B9 {\n &#160;26: ENTER{FunctionDeclaration}\n}</title>
<path fill="none" stroke="orange" d="M429.431,-671.91C444.143,-680.877 459.24,-692.893 468.57,-708 501.565,-761.425 487.57,-785.207 487.57,-848 487.57,-928 487.57,-928 487.57,-928 487.57,-997.078 499.541,-1021.3 466.57,-1082 460.455,-1093.26 451.112,-1103.27 441.4,-1111.61"/>
<polygon fill="orange" stroke="orange" points="439.163,-1108.92 433.587,-1117.92 443.564,-1114.36 439.163,-1108.92"/>
</g>
<!-- B16 {\n &#160;44: LOAD_VALUE{fibonacci}\n &#160;45: LOAD_VALUE{n}\n &#160;46: LOAD_LITERAL{2}\n &#160;47: SUB{}\n} -->
<g id="node19" class="node"><title>B16 {\n &#160;44: LOAD_VALUE{fibonacci}\n &#160;45: LOAD_VALUE{n}\n &#160;46: LOAD_LITERAL{2}\n &#160;47: SUB{}\n}</title>
<polygon fill="none" stroke="black" points="478.729,-594 294.41,-594 294.41,-510 478.729,-510 478.729,-594"/>
<text text-anchor="middle" x="386.57" y="-582.8" font-family="Times,serif" font-size="14.00">B16 {</text>
<text text-anchor="middle" x="386.57" y="-568.8" font-family="Times,serif" font-size="14.00"> &#160;44: LOAD_VALUE{fibonacci}</text>
<text text-anchor="middle" x="386.57" y="-554.8" font-family="Times,serif" font-size="14.00"> &#160;45: LOAD_VALUE{n}</text>
<text text-anchor="middle" x="386.57" y="-540.8" font-family="Times,serif" font-size="14.00"> &#160;46: LOAD_LITERAL{2}</text>
<text text-anchor="middle" x="386.57" y="-526.8" font-family="Times,serif" font-size="14.00"> &#160;47: SUB{}</text>
<text text-anchor="middle" x="386.57" y="-512.8" font-family="Times,serif" font-size="14.00">}</text>
</g>
<!-- B15 {\n &#160;43: CALL{1}\n}&#45;&gt;B16 {\n &#160;44: LOAD_VALUE{fibonacci}\n &#160;45: LOAD_VALUE{n}\n &#160;46: LOAD_LITERAL{2}\n &#160;47: SUB{}\n} -->
<g id="edge20" class="edge"><title>B15 {\n &#160;43: CALL{1}\n}&#45;&gt;B16 {\n &#160;44: LOAD_VALUE{fibonacci}\n &#160;45: LOAD_VALUE{n}\n &#160;46: LOAD_LITERAL{2}\n &#160;47: SUB{}\n}</title>
<path fill="none" stroke="gray" d="M386.57,-629.902C386.57,-622.402 386.57,-613.504 386.57,-604.468"/>
<polygon fill="gray" stroke="gray" points="390.07,-604.275 386.57,-594.275 383.07,-604.275 390.07,-604.275"/>
</g>
<!-- B17 {\n &#160;48: CALL{1}\n} -->
<g id="node20" class="node"><title>B17 {\n &#160;48: CALL{1}\n}</title>
<polygon fill="none" stroke="black" points="429.452,-474 343.688,-474 343.688,-432 429.452,-432 429.452,-474"/>
<text text-anchor="middle" x="386.57" y="-462.8" font-family="Times,serif" font-size="14.00">B17 {</text>
<text text-anchor="middle" x="386.57" y="-448.8" font-family="Times,serif" font-size="14.00"> &#160;48: CALL{1}</text>
<text text-anchor="middle" x="386.57" y="-434.8" font-family="Times,serif" font-size="14.00">}</text>
</g>
<!-- B16 {\n &#160;44: LOAD_VALUE{fibonacci}\n &#160;45: LOAD_VALUE{n}\n &#160;46: LOAD_LITERAL{2}\n &#160;47: SUB{}\n}&#45;&gt;B17 {\n &#160;48: CALL{1}\n} -->
<g id="edge21" class="edge"><title>B16 {\n &#160;44: LOAD_VALUE{fibonacci}\n &#160;45: LOAD_VALUE{n}\n &#160;46: LOAD_LITERAL{2}\n &#160;47: SUB{}\n}&#45;&gt;B17 {\n &#160;48: CALL{1}\n}</title>
<path fill="none" stroke="gray" d="M386.57,-509.863C386.57,-501.247 386.57,-492.312 386.57,-484.183"/>
<polygon fill="gray" stroke="gray" points="390.07,-484.054 386.57,-474.054 383.07,-484.054 390.07,-484.054"/>
</g>
<!-- B17 {\n &#160;48: CALL{1}\n}&#45;&gt;B9 {\n &#160;26: ENTER{FunctionDeclaration}\n} -->
<g id="edge22" class="edge"><title>B17 {\n &#160;48: CALL{1}\n}&#45;&gt;B9 {\n &#160;26: ENTER{FunctionDeclaration}\n}</title>
<path fill="none" stroke="orange" d="M429.486,-468.701C449.8,-477.688 472.789,-491.143 487.57,-510 527.343,-560.744 525.57,-585.526 525.57,-650 525.57,-928 525.57,-928 525.57,-928 525.57,-997.998 532.963,-1024.83 492.57,-1082 483.872,-1094.31 471.529,-1104.45 458.73,-1112.55"/>
<polygon fill="orange" stroke="orange" points="456.644,-1109.72 449.836,-1117.84 460.221,-1115.74 456.644,-1109.72"/>
</g>
<!-- B18 {\n &#160;49: ADD{}\n} -->
<g id="node21" class="node"><title>B18 {\n &#160;49: ADD{}\n}</title>
<polygon fill="none" stroke="black" points="379.465,-396 307.674,-396 307.674,-354 379.465,-354 379.465,-396"/>
<text text-anchor="middle" x="343.57" y="-384.8" font-family="Times,serif" font-size="14.00">B18 {</text>
<text text-anchor="middle" x="343.57" y="-370.8" font-family="Times,serif" font-size="14.00"> &#160;49: ADD{}</text>
<text text-anchor="middle" x="343.57" y="-356.8" font-family="Times,serif" font-size="14.00">}</text>
</g>
<!-- B17 {\n &#160;48: CALL{1}\n}&#45;&gt;B18 {\n &#160;49: ADD{}\n} -->
<g id="edge23" class="edge"><title>B17 {\n &#160;48: CALL{1}\n}&#45;&gt;B18 {\n &#160;49: ADD{}\n}</title>
<path fill="none" stroke="gray" d="M375.047,-431.633C370.431,-423.475 365.027,-413.923 360.012,-405.06"/>
<polygon fill="gray" stroke="gray" points="362.946,-403.139 354.976,-396.159 356.854,-406.586 362.946,-403.139"/>
</g>
<!-- B18 {\n &#160;49: ADD{}\n}&#45;&gt;B19 {\n &#160;27: EXIT{FunctionDeclaration}\n} -->
<g id="edge24" class="edge"><title>B18 {\n &#160;49: ADD{}\n}&#45;&gt;B19 {\n &#160;27: EXIT{FunctionDeclaration}\n}</title>
<path fill="none" stroke="gray" d="M320.523,-353.633C310.514,-344.788 298.652,-334.305 287.937,-324.836"/>
<polygon fill="gray" stroke="gray" points="290.193,-322.159 280.382,-318.159 285.557,-327.404 290.193,-322.159"/>
</g>
<!-- B20 {\n &#160;51: CALL{1}\n}&#45;&gt;1: EXC{Program} -->
<g id="edge26" class="edge"><title>B20 {\n &#160;51: CALL{1}\n}&#45;&gt;1: EXC{Program}</title>
<path fill="none" stroke="purple" d="M219.859,-197.902C189.854,-181.909 147.913,-159.556 116.979,-143.07"/>
<polygon fill="purple" stroke="purple" points="118.229,-139.77 107.757,-138.155 114.936,-145.947 118.229,-139.77"/>
</g>
<!-- B21 {\n &#160;52: POP{}\n &#160;19: EXIT{BlockStatement}\n &#160;53: LOAD_NAME{i}\n &#160;54: POSTINCR{}\n} -->
<g id="node23" class="node"><title>B21 {\n &#160;52: POP{}\n &#160;19: EXIT{BlockStatement}\n &#160;53: LOAD_NAME{i}\n &#160;54: POSTINCR{}\n}</title>
<polygon fill="none" stroke="black" points="437.203,-162 273.937,-162 273.937,-78 437.203,-78 437.203,-162"/>
<text text-anchor="middle" x="355.57" y="-150.8" font-family="Times,serif" font-size="14.00">B21 {</text>
<text text-anchor="middle" x="355.57" y="-136.8" font-family="Times,serif" font-size="14.00"> &#160;52: POP{}</text>
<text text-anchor="middle" x="355.57" y="-122.8" font-family="Times,serif" font-size="14.00"> &#160;19: EXIT{BlockStatement}</text>
<text text-anchor="middle" x="355.57" y="-108.8" font-family="Times,serif" font-size="14.00"> &#160;53: LOAD_NAME{i}</text>
<text text-anchor="middle" x="355.57" y="-94.8" font-family="Times,serif" font-size="14.00"> &#160;54: POSTINCR{}</text>
<text text-anchor="middle" x="355.57" y="-80.8" font-family="Times,serif" font-size="14.00">}</text>
</g>
<!-- B20 {\n &#160;51: CALL{1}\n}&#45;&gt;B21 {\n &#160;52: POP{}\n &#160;19: EXIT{BlockStatement}\n &#160;53: LOAD_NAME{i}\n &#160;54: POSTINCR{}\n} -->
<g id="edge27" class="edge"><title>B20 {\n &#160;51: CALL{1}\n}&#45;&gt;B21 {\n &#160;52: POP{}\n &#160;19: EXIT{BlockStatement}\n &#160;53: LOAD_NAME{i}\n &#160;54: POSTINCR{}\n}</title>
<path fill="none" stroke="gray" d="M277.875,-197.902C286.267,-189.596 296.391,-179.575 306.519,-169.55"/>
<polygon fill="gray" stroke="gray" points="309.224,-171.797 313.869,-162.275 304.3,-166.822 309.224,-171.797"/>
</g>
<!-- B22 {\n &#160;55: POP{}\n} -->
<g id="node24" class="node"><title>B22 {\n &#160;55: POP{}\n}</title>
<polygon fill="none" stroke="black" points="493.083,-42 426.056,-42 426.056,-0 493.083,-0 493.083,-42"/>
<text text-anchor="middle" x="459.57" y="-30.8" font-family="Times,serif" font-size="14.00">B22 {</text>
<text text-anchor="middle" x="459.57" y="-16.8" font-family="Times,serif" font-size="14.00"> &#160;55: POP{}</text>
<text text-anchor="middle" x="459.57" y="-2.8" font-family="Times,serif" font-size="14.00">}</text>
</g>
<!-- B21 {\n &#160;52: POP{}\n &#160;19: EXIT{BlockStatement}\n &#160;53: LOAD_NAME{i}\n &#160;54: POSTINCR{}\n}&#45;&gt;B22 {\n &#160;55: POP{}\n} -->
<g id="edge28" class="edge"><title>B21 {\n &#160;52: POP{}\n &#160;19: EXIT{BlockStatement}\n &#160;53: LOAD_NAME{i}\n &#160;54: POSTINCR{}\n}&#45;&gt;B22 {\n &#160;55: POP{}\n}</title>
<path fill="none" stroke="gray" d="M399.675,-77.8633C410.159,-68.0848 421.082,-57.8975 430.684,-48.9415"/>
<polygon fill="gray" stroke="gray" points="433.143,-51.4346 438.068,-42.0543 428.368,-46.3155 433.143,-51.4346"/>
</g>
<!-- B22 {\n &#160;55: POP{}\n}&#45;&gt;B2 {\n &#160;14: LOAD_VALUE{i}\n} -->
<g id="edge29" class="edge"><title>B22 {\n &#160;55: POP{}\n}&#45;&gt;B2 {\n &#160;14: LOAD_VALUE{i}\n}</title>
<path fill="none" stroke="orange" d="M478.888,-42.1488C508.964,-75.7313 563.57,-146.543 563.57,-218 563.57,-1558 563.57,-1558 563.57,-1558 563.57,-1615.6 517.422,-1668.48 484.371,-1698.96"/>
<polygon fill="orange" stroke="orange" points="481.803,-1696.56 476.705,-1705.85 486.482,-1701.77 481.803,-1696.56"/>
</g>
</g>
</svg>
