<?xml version="1.0" encoding="UTF-8" standalone="no"?>
<!DOCTYPE svg PUBLIC "-//W3C//DTD SVG 1.1//EN"
 "http://www.w3.org/Graphics/SVG/1.1/DTD/svg11.dtd">
<!-- Generated by graphviz version 2.38.0 (20140413.2041)
 -->
<!-- Title: Program Pages: 1 -->
<svg width="517pt" height="1090pt"
 viewBox="0.00 0.00 516.55 1090.00" xmlns="http://www.w3.org/2000/svg" xmlns:xlink="http://www.w3.org/1999/xlink">
<g id="graph0" class="graph" transform="scale(1 1) rotate(0) translate(4 1086)">
<title>Program</title>
<polygon fill="white" stroke="none" points="-4,4 -4,-1086 512.552,-1086 512.552,4 -4,4"/>
<!-- B1 {\n &#160;4: ENTER{Program}\n &#160;6: CREATE_FUNCTION{}\n &#160;7: STORE_VALUE{compare}\n &#160;8: POP{}\n &#160;9: ENTER{IfStatement}\n &#160;11: LOAD_VALUE{compare}\n &#160;12: LOAD_VALUE{Math}\n &#160;13: LOAD_PROP_NAME{random}\n &#160;14: CALL{}\n &#160;15: MATH_RANDOM{}\n &#160;16: LOAD_LITERAL{0.5}\n &#160;17: CALL{2}\n &#160;19: ENTER{FunctionDeclaration}\n &#160;22: ENTER{BlockStatement}\n &#160;24: LOAD_VALUE{lhs}\n &#160;25: LOAD_VALUE{rhs}\n &#160;26: SUB{}\n &#160;27: LOAD_LITERAL{}\n &#160;28: GT{}\n} -->
<g id="node1" class="node"><title>B1 {\n &#160;4: ENTER{Program}\n &#160;6: CREATE_FUNCTION{}\n &#160;7: STORE_VALUE{compare}\n &#160;8: POP{}\n &#160;9: ENTER{IfStatement}\n &#160;11: LOAD_VALUE{compare}\n &#160;12: LOAD_VALUE{Math}\n &#160;13: LOAD_PROP_NAME{random}\n &#160;14: CALL{}\n &#160;15: MATH_RANDOM{}\n &#160;16: LOAD_LITERAL{0.5}\n &#160;17: CALL{2}\n &#160;19: ENTER{FunctionDeclaration}\n &#160;22: ENTER{BlockStatement}\n &#160;24: LOAD_VALUE{lhs}\n &#160;25: LOAD_VALUE{rhs}\n &#160;26: SUB{}\n &#160;27: LOAD_LITERAL{}\n &#160;28: GT{}\n}</title>
<polygon fill="none" stroke="black" points="370.061,-1082 156.623,-1082 156.623,-788 370.061,-788 370.061,-1082"/>
<text text-anchor="middle" x="263.342" y="-1070.8" font-family="Times,serif" font-size="14.00">B1 {</text>
<text text-anchor="middle" x="263.342" y="-1056.8" font-family="Times,serif" font-size="14.00"> &#160;4: ENTER{Program}</text>
<text text-anchor="middle" x="263.342" y="-1042.8" font-family="Times,serif" font-size="14.00"> &#160;6: CREATE_FUNCTION{}</text>
<text text-anchor="middle" x="263.342" y="-1028.8" font-family="Times,serif" font-size="14.00"> &#160;7: STORE_VALUE{compare}</text>
<text text-anchor="middle" x="263.342" y="-1014.8" font-family="Times,serif" font-size="14.00"> &#160;8: POP{}</text>
<text text-anchor="middle" x="263.342" y="-1000.8" font-family="Times,serif" font-size="14.00"> &#160;9: ENTER{IfStatement}</text>
<text text-anchor="middle" x="263.342" y="-986.8" font-family="Times,serif" font-size="14.00"> &#160;11: LOAD_VALUE{compare}</text>
<text text-anchor="middle" x="263.342" y="-972.8" font-family="Times,serif" font-size="14.00"> &#160;12: LOAD_VALUE{Math}</text>
<text text-anchor="middle" x="263.342" y="-958.8" font-family="Times,serif" font-size="14.00"> &#160;13: LOAD_PROP_NAME{random}</text>
<text text-anchor="middle" x="263.342" y="-944.8" font-family="Times,serif" font-size="14.00"> &#160;14: CALL{}</text>
<text text-anchor="middle" x="263.342" y="-930.8" font-family="Times,serif" font-size="14.00"> &#160;15: MATH_RANDOM{}</text>
<text text-anchor="middle" x="263.342" y="-916.8" font-family="Times,serif" font-size="14.00"> &#160;16: LOAD_LITERAL{0.5}</text>
<text text-anchor="middle" x="263.342" y="-902.8" font-family="Times,serif" font-size="14.00"> &#160;17: CALL{2}</text>
<text text-anchor="middle" x="263.342" y="-888.8" font-family="Times,serif" font-size="14.00"> &#160;19: ENTER{FunctionDeclaration}</text>
<text text-anchor="middle" x="263.342" y="-874.8" font-family="Times,serif" font-size="14.00"> &#160;22: ENTER{BlockStatement}</text>
<text text-anchor="middle" x="263.342" y="-860.8" font-family="Times,serif" font-size="14.00"> &#160;24: LOAD_VALUE{lhs}</text>
<text text-anchor="middle" x="263.342" y="-846.8" font-family="Times,serif" font-size="14.00"> &#160;25: LOAD_VALUE{rhs}</text>
<text text-anchor="middle" x="263.342" y="-832.8" font-family="Times,serif" font-size="14.00"> &#160;26: SUB{}</text>
<text text-anchor="middle" x="263.342" y="-818.8" font-family="Times,serif" font-size="14.00"> &#160;27: LOAD_LITERAL{}</text>
<text text-anchor="middle" x="263.342" y="-804.8" font-family="Times,serif" font-size="14.00"> &#160;28: GT{}</text>
<text text-anchor="middle" x="263.342" y="-790.8" font-family="Times,serif" font-size="14.00">}</text>
</g>
<!-- B2 {\n &#160;20: EXIT{FunctionDeclaration}\n} -->
<g id="node2" class="node"><title>B2 {\n &#160;20: EXIT{FunctionDeclaration}\n}</title>
<polygon fill="none" stroke="black" points="357.624,-752 169.061,-752 169.061,-710 357.624,-710 357.624,-752"/>
<text text-anchor="middle" x="263.342" y="-740.8" font-family="Times,serif" font-size="14.00">B2 {</text>
<text text-anchor="middle" x="263.342" y="-726.8" font-family="Times,serif" font-size="14.00"> &#160;20: EXIT{FunctionDeclaration}</text>
<text text-anchor="middle" x="263.342" y="-712.8" font-family="Times,serif" font-size="14.00">}</text>
</g>
<!-- B1 {\n &#160;4: ENTER{Program}\n &#160;6: CREATE_FUNCTION{}\n &#160;7: STORE_VALUE{compare}\n &#160;8: POP{}\n &#160;9: ENTER{IfStatement}\n &#160;11: LOAD_VALUE{compare}\n &#160;12: LOAD_VALUE{Math}\n &#160;13: LOAD_PROP_NAME{random}\n &#160;14: CALL{}\n &#160;15: MATH_RANDOM{}\n &#160;16: LOAD_LITERAL{0.5}\n &#160;17: CALL{2}\n &#160;19: ENTER{FunctionDeclaration}\n &#160;22: ENTER{BlockStatement}\n &#160;24: LOAD_VALUE{lhs}\n &#160;25: LOAD_VALUE{rhs}\n &#160;26: SUB{}\n &#160;27: LOAD_LITERAL{}\n &#160;28: GT{}\n}&#45;&gt;B2 {\n &#160;20: EXIT{FunctionDeclaration}\n} -->
<g id="edge1" class="edge"><title>B1 {\n &#160;4: ENTER{Program}\n &#160;6: CREATE_FUNCTION{}\n &#160;7: STORE_VALUE{compare}\n &#160;8: POP{}\n &#160;9: ENTER{IfStatement}\n &#160;11: LOAD_VALUE{compare}\n &#160;12: LOAD_VALUE{Math}\n &#160;13: LOAD_PROP_NAME{random}\n &#160;14: CALL{}\n &#160;15: MATH_RANDOM{}\n &#160;16: LOAD_LITERAL{0.5}\n &#160;17: CALL{2}\n &#160;19: ENTER{FunctionDeclaration}\n &#160;22: ENTER{BlockStatement}\n &#160;24: LOAD_VALUE{lhs}\n &#160;25: LOAD_VALUE{rhs}\n &#160;26: SUB{}\n &#160;27: LOAD_LITERAL{}\n &#160;28: GT{}\n}&#45;&gt;B2 {\n &#160;20: EXIT{FunctionDeclaration}\n}</title>
<path fill="none" stroke="gray" d="M263.342,-787.732C263.342,-778.529 263.342,-769.958 263.342,-762.432"/>
<polygon fill="gray" stroke="gray" points="266.842,-762.202 263.342,-752.202 259.842,-762.202 266.842,-762.202"/>
</g>
<!-- B3 {\n &#160;30: TEST{}\n} -->
<g id="node3" class="node"><title>B3 {\n &#160;30: TEST{}\n}</title>
<polygon fill="none" stroke="black" points="300.867,-674 225.818,-674 225.818,-632 300.867,-632 300.867,-674"/>
<text text-anchor="middle" x="263.342" y="-662.8" font-family="Times,serif" font-size="14.00">B3 {</text>
<text text-anchor="middle" x="263.342" y="-648.8" font-family="Times,serif" font-size="14.00"> &#160;30: TEST{}</text>
<text text-anchor="middle" x="263.342" y="-634.8" font-family="Times,serif" font-size="14.00">}</text>
</g>
<!-- B2 {\n &#160;20: EXIT{FunctionDeclaration}\n}&#45;&gt;B3 {\n &#160;30: TEST{}\n} -->
<g id="edge2" class="edge"><title>B2 {\n &#160;20: EXIT{FunctionDeclaration}\n}&#45;&gt;B3 {\n &#160;30: TEST{}\n}</title>
<path fill="none" stroke="gray" d="M263.342,-709.633C263.342,-701.819 263.342,-692.725 263.342,-684.183"/>
<polygon fill="gray" stroke="gray" points="266.842,-684.159 263.342,-674.159 259.842,-684.159 266.842,-684.159"/>
</g>
<!-- B4 {\n &#160;31: ENTER{BlockStatement}\n} -->
<g id="node4" class="node"><title>B4 {\n &#160;31: ENTER{BlockStatement}\n}</title>
<polygon fill="none" stroke="black" points="254.703,-596 77.9816,-596 77.9816,-554 254.703,-554 254.703,-596"/>
<text text-anchor="middle" x="166.342" y="-584.8" font-family="Times,serif" font-size="14.00">B4 {</text>
<text text-anchor="middle" x="166.342" y="-570.8" font-family="Times,serif" font-size="14.00"> &#160;31: ENTER{BlockStatement}</text>
<text text-anchor="middle" x="166.342" y="-556.8" font-family="Times,serif" font-size="14.00">}</text>
</g>
<!-- B3 {\n &#160;30: TEST{}\n}&#45;&gt;B4 {\n &#160;31: ENTER{BlockStatement}\n} -->
<g id="edge3" class="edge"><title>B3 {\n &#160;30: TEST{}\n}&#45;&gt;B4 {\n &#160;31: ENTER{BlockStatement}\n}</title>
<path fill="none" stroke="green" d="M237.603,-631.833C226.202,-622.9 212.631,-612.268 200.407,-602.69"/>
<polygon fill="green" stroke="green" points="202.232,-599.674 192.202,-596.261 197.915,-605.184 202.232,-599.674"/>
</g>
<!-- B10 {\n &#160;38: ENTER{BlockStatement}\n} -->
<g id="node11" class="node"><title>B10 {\n &#160;38: ENTER{BlockStatement}\n}</title>
<polygon fill="none" stroke="black" points="448.703,-596 271.982,-596 271.982,-554 448.703,-554 448.703,-596"/>
<text text-anchor="middle" x="360.342" y="-584.8" font-family="Times,serif" font-size="14.00">B10 {</text>
<text text-anchor="middle" x="360.342" y="-570.8" font-family="Times,serif" font-size="14.00"> &#160;38: ENTER{BlockStatement}</text>
<text text-anchor="middle" x="360.342" y="-556.8" font-family="Times,serif" font-size="14.00">}</text>
</g>
<!-- B3 {\n &#160;30: TEST{}\n}&#45;&gt;B10 {\n &#160;38: ENTER{BlockStatement}\n} -->
<g id="edge12" class="edge"><title>B3 {\n &#160;30: TEST{}\n}&#45;&gt;B10 {\n &#160;38: ENTER{BlockStatement}\n}</title>
<path fill="none" stroke="red" d="M289.082,-631.833C300.483,-622.9 314.053,-612.268 326.278,-602.69"/>
<polygon fill="red" stroke="red" points="328.769,-605.184 334.482,-596.261 324.452,-599.674 328.769,-605.184"/>
</g>
<!-- B5 {\n &#160;33: LOAD_VALUE{console}\n} -->
<g id="node5" class="node"><title>B5 {\n &#160;33: LOAD_VALUE{console}\n}</title>
<polygon fill="none" stroke="black" points="254.45,-518 78.2348,-518 78.2348,-476 254.45,-476 254.45,-518"/>
<text text-anchor="middle" x="166.342" y="-506.8" font-family="Times,serif" font-size="14.00">B5 {</text>
<text text-anchor="middle" x="166.342" y="-492.8" font-family="Times,serif" font-size="14.00"> &#160;33: LOAD_VALUE{console}</text>
<text text-anchor="middle" x="166.342" y="-478.8" font-family="Times,serif" font-size="14.00">}</text>
</g>
<!-- B4 {\n &#160;31: ENTER{BlockStatement}\n}&#45;&gt;B5 {\n &#160;33: LOAD_VALUE{console}\n} -->
<g id="edge4" class="edge"><title>B4 {\n &#160;31: ENTER{BlockStatement}\n}&#45;&gt;B5 {\n &#160;33: LOAD_VALUE{console}\n}</title>
<path fill="none" stroke="gray" d="M166.342,-553.633C166.342,-545.819 166.342,-536.725 166.342,-528.183"/>
<polygon fill="gray" stroke="gray" points="169.842,-528.159 166.342,-518.159 162.842,-528.159 169.842,-528.159"/>
</g>
<!-- 1: EXC{Program} -->
<g id="node6" class="node"><title>1: EXC{Program}</title>
<polygon fill="none" stroke="black" points="312.385,-196 208.299,-196 208.299,-160 312.385,-160 312.385,-196"/>
<text text-anchor="middle" x="260.342" y="-173.8" font-family="Times,serif" font-size="14.00">1: EXC{Program}</text>
</g>
<!-- B5 {\n &#160;33: LOAD_VALUE{console}\n}&#45;&gt;1: EXC{Program} -->
<g id="edge5" class="edge"><title>B5 {\n &#160;33: LOAD_VALUE{console}\n}&#45;&gt;1: EXC{Program}</title>
<path fill="none" stroke="purple" d="M194.82,-475.89C206.17,-466.341 218.21,-453.959 225.342,-440 264.989,-362.41 265.002,-255.69 262.42,-206.217"/>
<polygon fill="purple" stroke="purple" points="265.901,-205.783 261.806,-196.012 258.913,-206.204 265.901,-205.783"/>
</g>
<!-- B6 {\n &#160;34: LOAD_PROP_NAME{log}\n} -->
<g id="node7" class="node"><title>B6 {\n &#160;34: LOAD_PROP_NAME{log}\n}</title>
<polygon fill="none" stroke="black" points="216.685,-440 27.9994,-440 27.9994,-398 216.685,-398 216.685,-440"/>
<text text-anchor="middle" x="122.342" y="-428.8" font-family="Times,serif" font-size="14.00">B6 {</text>
<text text-anchor="middle" x="122.342" y="-414.8" font-family="Times,serif" font-size="14.00"> &#160;34: LOAD_PROP_NAME{log}</text>
<text text-anchor="middle" x="122.342" y="-400.8" font-family="Times,serif" font-size="14.00">}</text>
</g>
<!-- B5 {\n &#160;33: LOAD_VALUE{console}\n}&#45;&gt;B6 {\n &#160;34: LOAD_PROP_NAME{log}\n} -->
<g id="edge6" class="edge"><title>B5 {\n &#160;33: LOAD_VALUE{console}\n}&#45;&gt;B6 {\n &#160;34: LOAD_PROP_NAME{log}\n}</title>
<path fill="none" stroke="gray" d="M154.551,-475.633C149.828,-467.475 144.298,-457.923 139.166,-449.06"/>
<polygon fill="gray" stroke="gray" points="142.053,-447.06 134.013,-440.159 135.995,-450.567 142.053,-447.06"/>
</g>
<!-- B6 {\n &#160;34: LOAD_PROP_NAME{log}\n}&#45;&gt;1: EXC{Program} -->
<g id="edge7" class="edge"><title>B6 {\n &#160;34: LOAD_PROP_NAME{log}\n}&#45;&gt;1: EXC{Program}</title>
<path fill="none" stroke="purple" d="M151.939,-397.83C164.275,-388.189 177.897,-375.751 187.342,-362 219.418,-315.301 208.581,-294.308 230.342,-242 235.417,-229.802 241.612,-216.564 247.052,-205.386"/>
<polygon fill="purple" stroke="purple" points="250.313,-206.688 251.592,-196.17 244.033,-203.594 250.313,-206.688"/>
</g>
<!-- B7 {\n &#160;35: LOAD_LITERAL{hello!}\n} -->
<g id="node8" class="node"><title>B7 {\n &#160;35: LOAD_LITERAL{hello!}\n}</title>
<polygon fill="none" stroke="black" points="178.527,-362 0.157437,-362 0.157437,-320 178.527,-320 178.527,-362"/>
<text text-anchor="middle" x="89.3423" y="-350.8" font-family="Times,serif" font-size="14.00">B7 {</text>
<text text-anchor="middle" x="89.3423" y="-336.8" font-family="Times,serif" font-size="14.00"> &#160;35: LOAD_LITERAL{hello!}</text>
<text text-anchor="middle" x="89.3423" y="-322.8" font-family="Times,serif" font-size="14.00">}</text>
</g>
<!-- B6 {\n &#160;34: LOAD_PROP_NAME{log}\n}&#45;&gt;B7 {\n &#160;35: LOAD_LITERAL{hello!}\n} -->
<g id="edge8" class="edge"><title>B6 {\n &#160;34: LOAD_PROP_NAME{log}\n}&#45;&gt;B7 {\n &#160;35: LOAD_LITERAL{hello!}\n}</title>
<path fill="none" stroke="gray" d="M113.499,-397.633C109.994,-389.561 105.896,-380.124 102.082,-371.34"/>
<polygon fill="gray" stroke="gray" points="105.289,-369.938 98.0957,-362.159 98.8681,-372.726 105.289,-369.938"/>
</g>
<!-- B8 {\n &#160;36: CALL{1}\n} -->
<g id="node9" class="node"><title>B8 {\n &#160;36: CALL{1}\n}</title>
<polygon fill="none" stroke="black" points="151.224,-284 65.4606,-284 65.4606,-242 151.224,-242 151.224,-284"/>
<text text-anchor="middle" x="108.342" y="-272.8" font-family="Times,serif" font-size="14.00">B8 {</text>
<text text-anchor="middle" x="108.342" y="-258.8" font-family="Times,serif" font-size="14.00"> &#160;36: CALL{1}</text>
<text text-anchor="middle" x="108.342" y="-244.8" font-family="Times,serif" font-size="14.00">}</text>
</g>
<!-- B7 {\n &#160;35: LOAD_LITERAL{hello!}\n}&#45;&gt;B8 {\n &#160;36: CALL{1}\n} -->
<g id="edge9" class="edge"><title>B7 {\n &#160;35: LOAD_LITERAL{hello!}\n}&#45;&gt;B8 {\n &#160;36: CALL{1}\n}</title>
<path fill="none" stroke="gray" d="M94.4339,-319.633C96.4091,-311.733 98.711,-302.525 100.867,-293.902"/>
<polygon fill="gray" stroke="gray" points="104.273,-294.71 103.302,-284.159 97.4815,-293.012 104.273,-294.71"/>
</g>
<!-- B8 {\n &#160;36: CALL{1}\n}&#45;&gt;1: EXC{Program} -->
<g id="edge10" class="edge"><title>B8 {\n &#160;36: CALL{1}\n}&#45;&gt;1: EXC{Program}</title>
<path fill="none" stroke="purple" d="M145.137,-241.908C167.786,-229.541 196.832,-213.68 220.092,-200.979"/>
<polygon fill="purple" stroke="purple" points="221.921,-203.968 229.021,-196.103 218.566,-197.824 221.921,-203.968"/>
</g>
<!-- B9 {\n &#160;37: POP{}\n &#160;32: EXIT{BlockStatement}\n} -->
<g id="node10" class="node"><title>B9 {\n &#160;37: POP{}\n &#160;32: EXIT{BlockStatement}\n}</title>
<polygon fill="none" stroke="black" points="189.975,-206 26.7094,-206 26.7094,-150 189.975,-150 189.975,-206"/>
<text text-anchor="middle" x="108.342" y="-194.8" font-family="Times,serif" font-size="14.00">B9 {</text>
<text text-anchor="middle" x="108.342" y="-180.8" font-family="Times,serif" font-size="14.00"> &#160;37: POP{}</text>
<text text-anchor="middle" x="108.342" y="-166.8" font-family="Times,serif" font-size="14.00"> &#160;32: EXIT{BlockStatement}</text>
<text text-anchor="middle" x="108.342" y="-152.8" font-family="Times,serif" font-size="14.00">}</text>
</g>
<!-- B8 {\n &#160;36: CALL{1}\n}&#45;&gt;B9 {\n &#160;37: POP{}\n &#160;32: EXIT{BlockStatement}\n} -->
<g id="edge11" class="edge"><title>B8 {\n &#160;36: CALL{1}\n}&#45;&gt;B9 {\n &#160;37: POP{}\n &#160;32: EXIT{BlockStatement}\n}</title>
<path fill="none" stroke="gray" d="M108.342,-241.908C108.342,-234.184 108.342,-225.097 108.342,-216.268"/>
<polygon fill="gray" stroke="gray" points="111.842,-216.12 108.342,-206.12 104.842,-216.12 111.842,-216.12"/>
</g>
<!-- B16 {\n &#160;10: EXIT{IfStatement}\n} -->
<g id="node17" class="node"><title>B16 {\n &#160;10: EXIT{IfStatement}\n}</title>
<polygon fill="none" stroke="black" points="329.858,-114 190.827,-114 190.827,-72 329.858,-72 329.858,-114"/>
<text text-anchor="middle" x="260.342" y="-102.8" font-family="Times,serif" font-size="14.00">B16 {</text>
<text text-anchor="middle" x="260.342" y="-88.8" font-family="Times,serif" font-size="14.00"> &#160;10: EXIT{IfStatement}</text>
<text text-anchor="middle" x="260.342" y="-74.8" font-family="Times,serif" font-size="14.00">}</text>
</g>
<!-- B9 {\n &#160;37: POP{}\n &#160;32: EXIT{BlockStatement}\n}&#45;&gt;B16 {\n &#160;10: EXIT{IfStatement}\n} -->
<g id="edge22" class="edge"><title>B9 {\n &#160;37: POP{}\n &#160;32: EXIT{BlockStatement}\n}&#45;&gt;B16 {\n &#160;10: EXIT{IfStatement}\n}</title>
<path fill="none" stroke="gray" d="M158.113,-149.823C176.25,-139.919 196.659,-128.774 214.445,-119.062"/>
<polygon fill="gray" stroke="gray" points="216.381,-121.993 223.481,-114.128 213.026,-115.849 216.381,-121.993"/>
</g>
<!-- B11 {\n &#160;40: LOAD_VALUE{console}\n} -->
<g id="node12" class="node"><title>B11 {\n &#160;40: LOAD_VALUE{console}\n}</title>
<polygon fill="none" stroke="black" points="448.45,-518 272.235,-518 272.235,-476 448.45,-476 448.45,-518"/>
<text text-anchor="middle" x="360.342" y="-506.8" font-family="Times,serif" font-size="14.00">B11 {</text>
<text text-anchor="middle" x="360.342" y="-492.8" font-family="Times,serif" font-size="14.00"> &#160;40: LOAD_VALUE{console}</text>
<text text-anchor="middle" x="360.342" y="-478.8" font-family="Times,serif" font-size="14.00">}</text>
</g>
<!-- B10 {\n &#160;38: ENTER{BlockStatement}\n}&#45;&gt;B11 {\n &#160;40: LOAD_VALUE{console}\n} -->
<g id="edge13" class="edge"><title>B10 {\n &#160;38: ENTER{BlockStatement}\n}&#45;&gt;B11 {\n &#160;40: LOAD_VALUE{console}\n}</title>
<path fill="none" stroke="gray" d="M360.342,-553.633C360.342,-545.819 360.342,-536.725 360.342,-528.183"/>
<polygon fill="gray" stroke="gray" points="363.842,-528.159 360.342,-518.159 356.842,-528.159 363.842,-528.159"/>
</g>
<!-- B11 {\n &#160;40: LOAD_VALUE{console}\n}&#45;&gt;1: EXC{Program} -->
<g id="edge14" class="edge"><title>B11 {\n &#160;40: LOAD_VALUE{console}\n}&#45;&gt;1: EXC{Program}</title>
<path fill="none" stroke="purple" d="M332.016,-475.811C320.692,-466.249 308.632,-453.878 301.342,-440 295.924,-429.684 273.267,-271.239 264.158,-206.372"/>
<polygon fill="purple" stroke="purple" points="267.573,-205.518 262.719,-196.1 260.64,-206.489 267.573,-205.518"/>
</g>
<!-- B12 {\n &#160;41: LOAD_PROP_NAME{log}\n} -->
<g id="node13" class="node"><title>B12 {\n &#160;41: LOAD_PROP_NAME{log}\n}</title>
<polygon fill="none" stroke="black" points="498.685,-440 309.999,-440 309.999,-398 498.685,-398 498.685,-440"/>
<text text-anchor="middle" x="404.342" y="-428.8" font-family="Times,serif" font-size="14.00">B12 {</text>
<text text-anchor="middle" x="404.342" y="-414.8" font-family="Times,serif" font-size="14.00"> &#160;41: LOAD_PROP_NAME{log}</text>
<text text-anchor="middle" x="404.342" y="-400.8" font-family="Times,serif" font-size="14.00">}</text>
</g>
<!-- B11 {\n &#160;40: LOAD_VALUE{console}\n}&#45;&gt;B12 {\n &#160;41: LOAD_PROP_NAME{log}\n} -->
<g id="edge15" class="edge"><title>B11 {\n &#160;40: LOAD_VALUE{console}\n}&#45;&gt;B12 {\n &#160;41: LOAD_PROP_NAME{log}\n}</title>
<path fill="none" stroke="gray" d="M372.133,-475.633C376.857,-467.475 382.387,-457.923 387.518,-449.06"/>
<polygon fill="gray" stroke="gray" points="390.69,-450.567 392.671,-440.159 384.632,-447.06 390.69,-450.567"/>
</g>
<!-- B12 {\n &#160;41: LOAD_PROP_NAME{log}\n}&#45;&gt;1: EXC{Program} -->
<g id="edge16" class="edge"><title>B12 {\n &#160;41: LOAD_PROP_NAME{log}\n}&#45;&gt;1: EXC{Program}</title>
<path fill="none" stroke="purple" d="M374.746,-397.83C362.41,-388.189 348.788,-375.751 339.342,-362 307.266,-315.301 320.043,-293.458 296.342,-242 290.578,-229.485 283.168,-216.164 276.571,-205.01"/>
<polygon fill="purple" stroke="purple" points="279.432,-202.977 271.274,-196.216 273.435,-206.588 279.432,-202.977"/>
</g>
<!-- B13 {\n &#160;42: LOAD_LITERAL{hi.}\n} -->
<g id="node14" class="node"><title>B13 {\n &#160;42: LOAD_LITERAL{hi.}\n}</title>
<polygon fill="none" stroke="black" points="508.762,-362 347.923,-362 347.923,-320 508.762,-320 508.762,-362"/>
<text text-anchor="middle" x="428.342" y="-350.8" font-family="Times,serif" font-size="14.00">B13 {</text>
<text text-anchor="middle" x="428.342" y="-336.8" font-family="Times,serif" font-size="14.00"> &#160;42: LOAD_LITERAL{hi.}</text>
<text text-anchor="middle" x="428.342" y="-322.8" font-family="Times,serif" font-size="14.00">}</text>
</g>
<!-- B12 {\n &#160;41: LOAD_PROP_NAME{log}\n}&#45;&gt;B13 {\n &#160;42: LOAD_LITERAL{hi.}\n} -->
<g id="edge17" class="edge"><title>B12 {\n &#160;41: LOAD_PROP_NAME{log}\n}&#45;&gt;B13 {\n &#160;42: LOAD_LITERAL{hi.}\n}</title>
<path fill="none" stroke="gray" d="M410.774,-397.633C413.269,-389.733 416.176,-380.525 418.9,-371.902"/>
<polygon fill="gray" stroke="gray" points="422.302,-372.749 421.976,-362.159 415.627,-370.641 422.302,-372.749"/>
</g>
<!-- B14 {\n &#160;43: CALL{1}\n} -->
<g id="node15" class="node"><title>B14 {\n &#160;43: CALL{1}\n}</title>
<polygon fill="none" stroke="black" points="455.224,-284 369.461,-284 369.461,-242 455.224,-242 455.224,-284"/>
<text text-anchor="middle" x="412.342" y="-272.8" font-family="Times,serif" font-size="14.00">B14 {</text>
<text text-anchor="middle" x="412.342" y="-258.8" font-family="Times,serif" font-size="14.00"> &#160;43: CALL{1}</text>
<text text-anchor="middle" x="412.342" y="-244.8" font-family="Times,serif" font-size="14.00">}</text>
</g>
<!-- B13 {\n &#160;42: LOAD_LITERAL{hi.}\n}&#45;&gt;B14 {\n &#160;43: CALL{1}\n} -->
<g id="edge18" class="edge"><title>B13 {\n &#160;42: LOAD_LITERAL{hi.}\n}&#45;&gt;B14 {\n &#160;43: CALL{1}\n}</title>
<path fill="none" stroke="gray" d="M424.055,-319.633C422.409,-311.819 420.495,-302.725 418.697,-294.183"/>
<polygon fill="gray" stroke="gray" points="422.071,-293.224 416.586,-284.159 415.222,-294.666 422.071,-293.224"/>
</g>
<!-- B14 {\n &#160;43: CALL{1}\n}&#45;&gt;1: EXC{Program} -->
<g id="edge19" class="edge"><title>B14 {\n &#160;43: CALL{1}\n}&#45;&gt;1: EXC{Program}</title>
<path fill="none" stroke="purple" d="M375.547,-241.908C352.898,-229.541 323.853,-213.68 300.592,-200.979"/>
<polygon fill="purple" stroke="purple" points="302.118,-197.824 291.664,-196.103 298.763,-203.968 302.118,-197.824"/>
</g>
<!-- B15 {\n &#160;44: POP{}\n &#160;39: EXIT{BlockStatement}\n} -->
<g id="node16" class="node"><title>B15 {\n &#160;44: POP{}\n &#160;39: EXIT{BlockStatement}\n}</title>
<polygon fill="none" stroke="black" points="493.975,-206 330.709,-206 330.709,-150 493.975,-150 493.975,-206"/>
<text text-anchor="middle" x="412.342" y="-194.8" font-family="Times,serif" font-size="14.00">B15 {</text>
<text text-anchor="middle" x="412.342" y="-180.8" font-family="Times,serif" font-size="14.00"> &#160;44: POP{}</text>
<text text-anchor="middle" x="412.342" y="-166.8" font-family="Times,serif" font-size="14.00"> &#160;39: EXIT{BlockStatement}</text>
<text text-anchor="middle" x="412.342" y="-152.8" font-family="Times,serif" font-size="14.00">}</text>
</g>
<!-- B14 {\n &#160;43: CALL{1}\n}&#45;&gt;B15 {\n &#160;44: POP{}\n &#160;39: EXIT{BlockStatement}\n} -->
<g id="edge20" class="edge"><title>B14 {\n &#160;43: CALL{1}\n}&#45;&gt;B15 {\n &#160;44: POP{}\n &#160;39: EXIT{BlockStatement}\n}</title>
<path fill="none" stroke="gray" d="M412.342,-241.908C412.342,-234.184 412.342,-225.097 412.342,-216.268"/>
<polygon fill="gray" stroke="gray" points="415.842,-216.12 412.342,-206.12 408.842,-216.12 415.842,-216.12"/>
</g>
<!-- B15 {\n &#160;44: POP{}\n &#160;39: EXIT{BlockStatement}\n}&#45;&gt;B16 {\n &#160;10: EXIT{IfStatement}\n} -->
<g id="edge21" class="edge"><title>B15 {\n &#160;44: POP{}\n &#160;39: EXIT{BlockStatement}\n}&#45;&gt;B16 {\n &#160;10: EXIT{IfStatement}\n}</title>
<path fill="none" stroke="gray" d="M362.572,-149.823C344.434,-139.919 324.025,-128.774 306.24,-119.062"/>
<polygon fill="gray" stroke="gray" points="307.658,-115.849 297.204,-114.128 304.303,-121.993 307.658,-115.849"/>
</g>
<!-- 5: EXIT{Program} -->
<g id="node18" class="node"><title>5: EXIT{Program}</title>
<polygon fill="none" stroke="black" points="314.261,-36 206.423,-36 206.423,-0 314.261,-0 314.261,-36"/>
<text text-anchor="middle" x="260.342" y="-13.8" font-family="Times,serif" font-size="14.00">5: EXIT{Program}</text>
</g>
<!-- B16 {\n &#160;10: EXIT{IfStatement}\n}&#45;&gt;5: EXIT{Program} -->
<g id="edge23" class="edge"><title>B16 {\n &#160;10: EXIT{IfStatement}\n}&#45;&gt;5: EXIT{Program}</title>
<path fill="none" stroke="gray" d="M260.342,-71.6654C260.342,-63.8343 260.342,-54.7591 260.342,-46.3712"/>
<polygon fill="gray" stroke="gray" points="263.842,-46.2595 260.342,-36.2595 256.842,-46.2596 263.842,-46.2595"/>
</g>
</g>
</svg>
